<svg width="445" height="42" viewBox="0 0 445 42" fill="none" xmlns="http://www.w3.org/2000/svg">
<path d="M0.96 18.952C2.112 18.856 2.976 18.544 3.552 18.016C4.152 17.488 4.452 16.78 4.452 15.892C4.452 14.884 4.344 13.432 4.128 11.536C3.888 9.28 3.768 7.636 3.768 6.604C3.768 4.732 4.32 3.28 5.424 2.248C6.552 1.192 8.04 0.663998 9.888 0.663998H12.372V4.912H10.86C9.372 4.912 8.628 5.62 8.628 7.036C8.628 7.708 8.724 9.052 8.916 11.068C8.94 11.308 9 11.992 9.096 13.12C9.192 14.224 9.24 15.208 9.24 16.072C9.24 17.344 8.928 18.4 8.304 19.24C7.68 20.08 6.732 20.62 5.46 20.86V20.932C6.732 21.196 7.68 21.748 8.304 22.588C8.928 23.404 9.24 24.46 9.24 25.756C9.24 26.572 9.192 27.544 9.096 28.672C9 29.776 8.94 30.472 8.916 30.76C8.724 32.776 8.628 34.108 8.628 34.756C8.628 35.5 8.808 36.04 9.168 36.376C9.528 36.712 10.092 36.88 10.86 36.88H12.372V41.164H9.888C8.04 41.164 6.552 40.636 5.424 39.58C4.32 38.548 3.768 37.096 3.768 35.224C3.768 34.168 3.888 32.512 4.128 30.256C4.344 28.36 4.452 26.92 4.452 25.936C4.452 25.048 4.152 24.34 3.552 23.812C2.976 23.284 2.112 22.972 0.96 22.876V18.952ZM33.6975 21.4C33.6975 18.928 34.2495 16.72 35.3535 14.776C36.4815 12.808 38.0055 11.284 39.9255 10.204C41.8695 9.1 44.0415 8.548 46.4415 8.548C49.2495 8.548 51.7095 9.268 53.8215 10.708C55.9335 12.148 57.4095 14.14 58.2495 16.684H52.4535C51.8775 15.484 51.0615 14.584 50.0055 13.984C48.9735 13.384 47.7735 13.084 46.4055 13.084C44.9415 13.084 43.6335 13.432 42.4815 14.128C41.3535 14.8 40.4655 15.76 39.8175 17.008C39.1935 18.256 38.8815 19.72 38.8815 21.4C38.8815 23.056 39.1935 24.52 39.8175 25.792C40.4655 27.04 41.3535 28.012 42.4815 28.708C43.6335 29.38 44.9415 29.716 46.4055 29.716C47.7735 29.716 48.9735 29.416 50.0055 28.816C51.0615 28.192 51.8775 27.28 52.4535 26.08H58.2495C57.4095 28.648 55.9335 30.652 53.8215 32.092C51.7335 33.508 49.2735 34.216 46.4415 34.216C44.0415 34.216 41.8695 33.676 39.9255 32.596C38.0055 31.492 36.4815 29.968 35.3535 28.024C34.2495 26.08 33.6975 23.872 33.6975 21.4ZM74.2183 34.252C71.8663 34.252 69.7063 33.7 67.7383 32.596C65.7703 31.492 64.2103 29.968 63.0583 28.024C61.9063 26.056 61.3303 23.836 61.3303 21.364C61.3303 18.916 61.9063 16.72 63.0583 14.776C64.2103 12.808 65.7703 11.272 67.7383 10.168C69.7063 9.064 71.8663 8.512 74.2183 8.512C76.5943 8.512 78.7543 9.064 80.6983 10.168C82.6663 11.272 84.2143 12.808 85.3423 14.776C86.4943 16.72 87.0703 18.916 87.0703 21.364C87.0703 23.836 86.4943 26.056 85.3423 28.024C84.2143 29.968 82.6663 31.492 80.6983 32.596C78.7303 33.7 76.5703 34.252 74.2183 34.252ZM74.2183 29.752C75.7303 29.752 77.0623 29.416 78.2143 28.744C79.3663 28.048 80.2663 27.064 80.9143 25.792C81.5623 24.52 81.8863 23.044 81.8863 21.364C81.8863 19.684 81.5623 18.22 80.9143 16.972C80.2663 15.7 79.3663 14.728 78.2143 14.056C77.0623 13.384 75.7303 13.048 74.2183 13.048C72.7063 13.048 71.3623 13.384 70.1863 14.056C69.0343 14.728 68.1343 15.7 67.4863 16.972C66.8383 18.22 66.5143 19.684 66.5143 21.364C66.5143 23.044 66.8383 24.52 67.4863 25.792C68.1343 27.064 69.0343 28.048 70.1863 28.744C71.3623 29.416 72.7063 29.752 74.2183 29.752ZM99.6039 8.872C102.244 8.872 104.56 9.388 106.552 10.42C108.568 11.452 110.116 12.928 111.196 14.848C112.3 16.744 112.852 18.952 112.852 21.472C112.852 23.992 112.3 26.2 111.196 28.096C110.116 29.968 108.568 31.42 106.552 32.452C104.56 33.484 102.244 34 99.6039 34H90.8199V8.872H99.6039ZM99.4239 29.716C102.064 29.716 104.104 28.996 105.544 27.556C106.984 26.116 107.704 24.088 107.704 21.472C107.704 18.856 106.984 16.816 105.544 15.352C104.104 13.864 102.064 13.12 99.4239 13.12H95.8599V29.716H99.4239ZM121.665 12.94V19.24H130.125V23.236H121.665V29.896H131.205V34H116.625V8.836H131.205V12.94H121.665ZM148.745 34L143.201 24.208H140.825V34H135.785V8.872H145.217C147.161 8.872 148.817 9.22 150.185 9.916C151.553 10.588 152.573 11.512 153.245 12.688C153.941 13.84 154.289 15.136 154.289 16.576C154.289 18.232 153.809 19.732 152.849 21.076C151.889 22.396 150.461 23.308 148.565 23.812L154.577 34H148.745ZM140.825 20.428H145.037C146.405 20.428 147.425 20.104 148.097 19.456C148.769 18.784 149.105 17.86 149.105 16.684C149.105 15.532 148.769 14.644 148.097 14.02C147.425 13.372 146.405 13.048 145.037 13.048H140.825V20.428ZM167.523 34.252C165.771 34.252 164.187 33.952 162.771 33.352C161.379 32.752 160.275 31.888 159.459 30.76C158.643 29.632 158.223 28.3 158.199 26.764H163.599C163.671 27.796 164.031 28.612 164.679 29.212C165.351 29.812 166.263 30.112 167.415 30.112C168.591 30.112 169.515 29.836 170.187 29.284C170.859 28.708 171.195 27.964 171.195 27.052C171.195 26.308 170.967 25.696 170.511 25.216C170.055 24.736 169.479 24.364 168.783 24.1C168.111 23.812 167.175 23.5 165.975 23.164C164.343 22.684 163.011 22.216 161.979 21.76C160.971 21.28 160.095 20.572 159.351 19.636C158.631 18.676 158.271 17.404 158.271 15.82C158.271 14.332 158.643 13.036 159.387 11.932C160.131 10.828 161.175 9.988 162.519 9.412C163.863 8.812 165.399 8.512 167.127 8.512C169.719 8.512 171.819 9.148 173.427 10.42C175.059 11.668 175.959 13.42 176.127 15.676H170.583C170.535 14.812 170.163 14.104 169.467 13.552C168.795 12.976 167.895 12.688 166.767 12.688C165.783 12.688 164.991 12.94 164.391 13.444C163.815 13.948 163.527 14.68 163.527 15.64C163.527 16.312 163.743 16.876 164.175 17.332C164.631 17.764 165.183 18.124 165.831 18.412C166.503 18.676 167.439 18.988 168.639 19.348C170.271 19.828 171.603 20.308 172.635 20.788C173.667 21.268 174.555 21.988 175.299 22.948C176.043 23.908 176.415 25.168 176.415 26.728C176.415 28.072 176.067 29.32 175.371 30.472C174.675 31.624 173.655 32.548 172.311 33.244C170.967 33.916 169.371 34.252 167.523 34.252ZM188.139 21.4C188.139 18.928 188.691 16.72 189.795 14.776C190.923 12.808 192.447 11.284 194.367 10.204C196.311 9.1 198.483 8.548 200.883 8.548C203.691 8.548 206.151 9.268 208.263 10.708C210.375 12.148 211.851 14.14 212.691 16.684H206.895C206.319 15.484 205.503 14.584 204.447 13.984C203.415 13.384 202.215 13.084 200.847 13.084C199.383 13.084 198.075 13.432 196.923 14.128C195.795 14.8 194.907 15.76 194.259 17.008C193.635 18.256 193.323 19.72 193.323 21.4C193.323 23.056 193.635 24.52 194.259 25.792C194.907 27.04 195.795 28.012 196.923 28.708C198.075 29.38 199.383 29.716 200.847 29.716C202.215 29.716 203.415 29.416 204.447 28.816C205.503 28.192 206.319 27.28 206.895 26.08H212.691C211.851 28.648 210.375 30.652 208.263 32.092C206.175 33.508 203.715 34.216 200.883 34.216C198.483 34.216 196.311 33.676 194.367 32.596C192.447 31.492 190.923 29.968 189.795 28.024C188.691 26.08 188.139 23.872 188.139 21.4ZM228.66 34.252C226.308 34.252 224.148 33.7 222.18 32.596C220.212 31.492 218.652 29.968 217.5 28.024C216.348 26.056 215.772 23.836 215.772 21.364C215.772 18.916 216.348 16.72 217.5 14.776C218.652 12.808 220.212 11.272 222.18 10.168C224.148 9.064 226.308 8.512 228.66 8.512C231.036 8.512 233.196 9.064 235.14 10.168C237.108 11.272 238.656 12.808 239.784 14.776C240.936 16.72 241.512 18.916 241.512 21.364C241.512 23.836 240.936 26.056 239.784 28.024C238.656 29.968 237.108 31.492 235.14 32.596C233.172 33.7 231.012 34.252 228.66 34.252ZM228.66 29.752C230.172 29.752 231.504 29.416 232.656 28.744C233.808 28.048 234.708 27.064 235.356 25.792C236.004 24.52 236.328 23.044 236.328 21.364C236.328 19.684 236.004 18.22 235.356 16.972C234.708 15.7 233.808 14.728 232.656 14.056C231.504 13.384 230.172 13.048 228.66 13.048C227.148 13.048 225.804 13.384 224.628 14.056C223.476 14.728 222.576 15.7 221.928 16.972C221.28 18.22 220.956 19.684 220.956 21.364C220.956 23.044 221.28 24.52 221.928 25.792C222.576 27.064 223.476 28.048 224.628 28.744C225.804 29.416 227.148 29.752 228.66 29.752ZM272.657 8.872V34H267.617V17.656L260.885 34H257.069L250.301 17.656V34H245.261V8.872H250.985L258.977 27.556L266.969 8.872H272.657ZM305.036 8.872V34H299.996V17.656L293.264 34H289.448L282.68 17.656V34H277.64V8.872H283.364L291.356 27.556L299.348 8.872H305.036ZM314.987 8.872V24.424C314.987 26.128 315.431 27.436 316.319 28.348C317.207 29.236 318.455 29.68 320.063 29.68C321.695 29.68 322.955 29.236 323.843 28.348C324.731 27.436 325.175 26.128 325.175 24.424V8.872H330.251V24.388C330.251 26.524 329.783 28.336 328.847 29.824C327.935 31.288 326.699 32.392 325.139 33.136C323.603 33.88 321.887 34.252 319.991 34.252C318.119 34.252 316.415 33.88 314.879 33.136C313.367 32.392 312.167 31.288 311.279 29.824C310.391 28.336 309.947 26.524 309.947 24.388V8.872H314.987ZM356.613 34H351.573L340.161 16.756V34H335.121V8.836H340.161L351.573 26.116V8.836H356.613V34ZM366.633 8.872V34H361.593V8.872H366.633ZM388.713 8.872V12.94H382.017V34H376.977V12.94H370.281V8.872H388.713ZM412.37 8.872L403.874 25.252V34H398.834V25.252L390.302 8.872H395.99L401.39 20.356L406.754 8.872H412.37ZM444.277 22.876C443.125 22.972 442.249 23.284 441.649 23.812C441.073 24.34 440.785 25.048 440.785 25.936C440.785 26.92 440.893 28.36 441.109 30.256C441.349 32.512 441.469 34.168 441.469 35.224C441.469 37.096 440.905 38.548 439.777 39.58C438.673 40.636 437.197 41.164 435.349 41.164H432.865V36.88H434.377C435.145 36.88 435.709 36.712 436.069 36.376C436.429 36.04 436.609 35.5 436.609 34.756C436.609 34.108 436.513 32.776 436.321 30.76C436.297 30.472 436.237 29.776 436.141 28.672C436.045 27.544 435.997 26.572 435.997 25.756C435.997 24.46 436.309 23.404 436.933 22.588C437.557 21.748 438.505 21.196 439.777 20.932V20.86C438.505 20.62 437.557 20.08 436.933 19.24C436.309 18.4 435.997 17.344 435.997 16.072C435.997 15.208 436.045 14.224 436.141 13.12C436.237 11.992 436.297 11.308 436.321 11.068C436.513 9.052 436.609 7.708 436.609 7.036C436.609 5.62 435.865 4.912 434.377 4.912H432.865V0.663998H435.349C437.197 0.663998 438.673 1.192 439.777 2.248C440.905 3.28 441.469 4.732 441.469 6.604C441.469 7.636 441.349 9.28 441.109 11.536C440.893 13.432 440.785 14.884 440.785 15.892C440.785 16.78 441.073 17.488 441.649 18.016C442.249 18.544 443.125 18.856 444.277 18.952V22.876Z" fill="#3466F6"/>
</svg>
